<?xml version="1.0" encoding="UTF-8" standalone="no"?><!DOCTYPE svg PUBLIC "-//W3C//DTD SVG 1.1//EN" "http://www.w3.org/Graphics/SVG/1.1/DTD/svg11.dtd"><svg width="100%" height="100%" viewBox="0 0 8775 2589" version="1.1" xmlns="http://www.w3.org/2000/svg" xmlns:xlink="http://www.w3.org/1999/xlink" xml:space="preserve" xmlns:serif="http://www.serif.com/" style="fill-rule:evenodd;clip-rule:evenodd;stroke-linejoin:round;stroke-miterlimit:2;"><path d="M318.219,1756.08l-302.734,0c0,44.559 -0.479,87.334 0.113,130.088c0.85,61.991 5.65,123.654 20.55,184.062c39.508,160.075 135.087,267.834 296.029,312.338c86.575,23.946 175.162,25.291 263.467,12.225c173.987,-25.767 292.995,-119.592 347.237,-289.2c28.379,-88.763 33.533,-180.375 26.779,-272.854c-8.233,-112.692 -40.516,-218.075 -103.704,-311.8c-47.1,-69.859 -101.037,-134.83 -162.521,-193.084c-71.8,-68.033 -142.916,-136.791 -214.875,-204.637c-47.025,-44.346 -82.996,-96.404 -109.262,-154.975c-36.313,-80.975 -45.317,-165.225 -23.663,-251.692c9.229,-36.846 28.05,-68.242 61.346,-89.096c97.017,-60.766 221.796,-9.621 243.017,102.275c8.25,43.475 6.612,88.859 9.112,133.384c0.704,12.558 0.104,25.187 0.104,38.354l299.159,0c3.662,-97.692 1.587,-192.871 -25.988,-285.492c-41.7,-140.017 -128.062,-237.854 -271.371,-278.367c-109.72,-31.012 -220.891,-31.825 -331.408,-4.362c-134.125,33.325 -225.908,115.875 -274.146,245.492c-43.304,116.337 -50.021,237.004 -32.129,358.3c23.688,160.55 101.858,294.083 217.125,406.279c64.088,62.379 130.446,122.433 195.796,183.508c55.512,51.892 105.7,108.333 146.292,172.788c52.983,84.133 72.045,175.595 57.187,273.891c-11.862,78.446 -55.471,124.559 -129.7,136.638c-15.137,2.45 -30.879,2.025 -46.312,1.679c-74.042,-1.692 -126.005,-40.775 -144.542,-112.6c-7.404,-28.725 -9.542,-59.263 -10.508,-89.088c-1.642,-50.508 -0.45,-101.116 -0.45,-154.054m661.26,-838.01c-101.192,2.617 -201.442,0.942 -301.654,0.742c-7,-0.017 -13.983,-4.538 -22.183,-7.388c-0.646,-11.921 -1.334,-22.025 -1.717,-32.129c-1.75,-45.454 -1.021,-91.167 -5.675,-136.308c-6.738,-65.284 -41.063,-107.946 -96.833,-118.767c-28.063,-5.438 -58.73,-5.846 -86.838,-0.817c-56.433,10.079 -86.9,50.125 -97.583,103.9c-20.488,103.079 -2.925,200.404 54.304,288.675c22.262,34.334 48.137,67.263 77.004,96.192c72.258,72.421 147.925,141.408 220.821,213.221c71.808,70.737 139.033,146.141 186.458,235.654c69.009,130.212 92.784,269.862 77.142,416.646c-6.692,62.808 -18.925,124.05 -44.383,181.75c-49.454,112.083 -132.93,188.462 -249.321,226.916c-122.454,40.446 -246.834,43.246 -370.325,6.738c-157.925,-46.7 -253.054,-155.092 -293.742,-312.792c-16.575,-64.254 -24.554,-129.896 -24.842,-196.346c-0.145,-36.12 -0.183,-72.241 0.096,-108.362c0.071,-9.283 1.55,-18.558 2.659,-30.913c10.541,-1.787 20.22,-4.82 29.916,-4.85c89.438,-0.375 178.888,-0.341 268.334,-0.05c8.991,0.042 17.975,2.538 29.87,4.342c0,12.271 -0.183,22.392 0.042,32.504c1.383,63.554 0.258,127.296 5.017,190.604c5.021,66.913 42.841,111.28 100.671,125.538c32.958,8.117 66.65,8.154 99.65,0.196c48.758,-11.754 79.866,-43.863 92.1,-91.367c24.65,-95.725 11.558,-187.608 -36.246,-273.896c-40.383,-72.887 -95.363,-134.35 -155.779,-191.066c-67.08,-62.963 -136.53,-123.534 -201.317,-188.746c-120.167,-120.929 -200.279,-263.867 -219.138,-435.679c-12.3,-112.088 -4.504,-223.188 34.092,-330.505c50.05,-139.158 146.4,-226.575 290.446,-262.475c107.483,-26.8 214.438,-26.287 321.142,1.563c145.579,37.983 240.229,130.9 287.629,272.621c32.633,97.596 37.646,198.687 35.171,300.504c-0.15,5.867 -2.338,11.675 -4.988,24.15" style="fill:#231f20;"/><path d="M318.219,1756.08l-302.734,0c0,44.559 -0.479,87.334 0.113,130.088c0.85,61.991 5.65,123.654 20.55,184.062c39.508,160.075 135.087,267.834 296.029,312.338c86.575,23.946 175.162,25.291 263.467,12.225c173.987,-25.767 292.995,-119.592 347.237,-289.2c28.379,-88.763 33.533,-180.375 26.779,-272.854c-8.233,-112.692 -40.516,-218.075 -103.704,-311.8c-47.1,-69.859 -101.037,-134.83 -162.521,-193.084c-71.8,-68.033 -142.916,-136.791 -214.875,-204.637c-47.025,-44.346 -82.996,-96.404 -109.262,-154.975c-36.313,-80.975 -45.317,-165.225 -23.663,-251.692c9.229,-36.846 28.05,-68.242 61.346,-89.096c97.017,-60.766 221.796,-9.621 243.017,102.275c8.25,43.475 6.612,88.859 9.112,133.384c0.704,12.558 0.104,25.187 0.104,38.354l299.159,0c3.662,-97.692 1.587,-192.871 -25.988,-285.492c-41.7,-140.017 -128.062,-237.854 -271.371,-278.367c-109.72,-31.012 -220.891,-31.825 -331.408,-4.362c-134.125,33.325 -225.908,115.875 -274.146,245.492c-43.304,116.337 -50.021,237.004 -32.129,358.3c23.688,160.55 101.858,294.083 217.125,406.279c64.088,62.379 130.446,122.433 195.796,183.508c55.512,51.892 105.7,108.333 146.292,172.788c52.983,84.133 72.045,175.595 57.187,273.891c-11.862,78.446 -55.471,124.559 -129.7,136.638c-15.137,2.45 -30.879,2.025 -46.312,1.679c-74.042,-1.692 -126.005,-40.775 -144.542,-112.6c-7.404,-28.725 -9.542,-59.263 -10.508,-89.088c-1.642,-50.508 -0.45,-101.116 -0.45,-154.054m661.26,-838.01c-101.192,2.617 -201.442,0.942 -301.654,0.742c-7,-0.017 -13.983,-4.538 -22.183,-7.388c-0.646,-11.921 -1.334,-22.025 -1.717,-32.129c-1.75,-45.454 -1.021,-91.167 -5.675,-136.308c-6.738,-65.284 -41.063,-107.946 -96.833,-118.767c-28.063,-5.438 -58.73,-5.846 -86.838,-0.817c-56.433,10.079 -86.9,50.125 -97.583,103.9c-20.488,103.079 -2.925,200.404 54.304,288.675c22.262,34.334 48.137,67.263 77.004,96.192c72.258,72.421 147.925,141.408 220.821,213.221c71.808,70.737 139.033,146.141 186.458,235.654c69.009,130.212 92.784,269.862 77.142,416.646c-6.692,62.808 -18.925,124.05 -44.383,181.75c-49.454,112.083 -132.93,188.462 -249.321,226.916c-122.454,40.446 -246.834,43.246 -370.325,6.738c-157.925,-46.7 -253.054,-155.092 -293.742,-312.792c-16.575,-64.254 -24.554,-129.896 -24.842,-196.346c-0.145,-36.12 -0.183,-72.241 0.096,-108.362c0.071,-9.283 1.55,-18.558 2.659,-30.913c10.541,-1.787 20.22,-4.82 29.916,-4.85c89.438,-0.375 178.888,-0.341 268.334,-0.05c8.991,0.042 17.975,2.538 29.87,4.342c0,12.271 -0.183,22.392 0.042,32.504c1.383,63.554 0.258,127.296 5.017,190.604c5.021,66.913 42.841,111.28 100.671,125.538c32.958,8.117 66.65,8.154 99.65,0.196c48.758,-11.754 79.866,-43.863 92.1,-91.367c24.65,-95.725 11.558,-187.608 -36.246,-273.896c-40.383,-72.887 -95.363,-134.35 -155.779,-191.066c-67.08,-62.963 -136.53,-123.534 -201.317,-188.746c-120.167,-120.929 -200.279,-263.867 -219.138,-435.679c-12.3,-112.088 -4.504,-223.188 34.092,-330.505c50.05,-139.158 146.4,-226.575 290.446,-262.475c107.483,-26.8 214.438,-26.287 321.142,1.563c145.579,37.983 240.229,130.9 287.629,272.621c32.633,97.596 37.646,198.687 35.171,300.504c-0.15,5.867 -2.338,11.675 -4.988,24.15" style="fill:#231f20;"/><path d="M2410.4,2467.49l0,-2450.55l-251.8,0c-25.4,51.838 -49.021,100.404 -72.987,148.8c-16.4,33.117 -41.405,58.8 -70.921,80.479c-61.204,44.954 -130.329,68.179 -205.442,74.984c-26.171,2.362 -52.354,4.575 -77.879,6.795l0,267.159l297.946,0l0,1872.33l381.083,0l0,0.003Zm13.59,16.19c-138.375,1.45 -271.609,-0.954 -408.163,-0.262l0,-1875.1l-293.016,0c-11.413,-25.184 -12.688,-264.88 -2.034,-295.092c18.284,-1.008 38.475,-2.138 58.679,-3.225c72.146,-3.883 140.771,-19.517 203.117,-58.179c40.292,-24.979 74.142,-55.554 94.95,-98.967c23.321,-48.621 46.675,-97.233 70.929,-147.775c16.821,-6.508 246.85,-7.4 274.229,1.054c0.909,9.288 2.85,19.984 2.871,30.688c0.417,169.387 0.763,338.791 0.784,508.187c0.075,632.004 0.037,1264.01 -0.063,1896.03c0,12.496 -1.304,24.992 -2.283,42.65" style="fill:#231f20;"/><path d="M2410.4,2467.49l0,-2450.55l-251.8,0c-25.4,51.838 -49.021,100.404 -72.987,148.8c-16.4,33.117 -41.405,58.8 -70.921,80.479c-61.204,44.954 -130.329,68.179 -205.442,74.984c-26.171,2.362 -52.354,4.575 -77.879,6.795l0,267.159l297.946,0l0,1872.33l381.083,0l0,0.003Zm13.59,16.19c-138.375,1.45 -271.609,-0.954 -408.163,-0.262l0,-1875.1l-293.016,0c-11.413,-25.184 -12.688,-264.88 -2.034,-295.092c18.284,-1.008 38.475,-2.138 58.679,-3.225c72.146,-3.883 140.771,-19.517 203.117,-58.179c40.292,-24.979 74.142,-55.554 94.95,-98.967c23.321,-48.621 46.675,-97.233 70.929,-147.775c16.821,-6.508 246.85,-7.4 274.229,1.054c0.909,9.288 2.85,19.984 2.871,30.688c0.417,169.387 0.763,338.791 0.784,508.187c0.075,632.004 0.037,1264.01 -0.063,1896.03c0,12.496 -1.304,24.992 -2.283,42.65" style="fill:#231f20;"/><path d="M3754.61,2052.9c6.4,0.738 10.567,1.634 14.738,1.634c93.645,0.041 187.3,0.054 280.95,-0.138c7.662,-0.012 15.466,-0.879 22.962,-2.504c72.971,-15.904 118.637,-76.233 118.762,-156.546c0.15,-96.625 -62.887,-160.062 -159.291,-160.137c-83.346,-0.084 -166.683,-0.054 -250.025,0.033c-9.059,0.017 -18.113,0.746 -28.096,1.188l0,316.47Zm0.85,395.86c4.321,1.037 6.762,2.133 9.2,2.133c104.783,0 209.592,1.283 314.337,-0.796c51.834,-1.046 97.905,-21.183 128.921,-64.754c47.996,-67.392 52.809,-140.513 17.734,-214.4c-32.796,-69.092 -92.867,-94.813 -166.479,-94.746c-92.767,0.058 -185.525,-0.2 -278.292,-0.2c-8.279,0 -16.558,0.863 -25.421,1.354l0,371.409Zm-21.37,21.96l0,-755.383c10.4,-0.559 19.459,-1.446 28.513,-1.45c91.175,-0.113 182.342,-0.192 273.512,-0.03c101.117,0.163 173.563,71.838 175.48,173.284c1.425,75.3 -21.909,121.191 -88.675,172.137c4.812,2.442 8.55,4.971 12.666,6.321c108.292,35.917 140.254,147.35 130.171,221.717c-3.742,27.608 -12.025,55.708 -23.937,80.871c-31.663,66.916 -89.371,101.05 -160.659,103.591c-110.825,3.959 -221.866,1.296 -332.821,1.325c-4.1,0 -8.208,-1.337 -14.25,-2.383" style="fill:#231f20;"/><path d="M3754.61,2052.9c6.4,0.738 10.567,1.634 14.738,1.634c93.645,0.041 187.3,0.054 280.95,-0.138c7.662,-0.012 15.466,-0.879 22.962,-2.504c72.971,-15.904 118.637,-76.233 118.762,-156.546c0.15,-96.625 -62.887,-160.062 -159.291,-160.137c-83.346,-0.084 -166.683,-0.054 -250.025,0.033c-9.059,0.017 -18.113,0.746 -28.096,1.188l0,316.47Zm0.85,395.86c4.321,1.037 6.762,2.133 9.2,2.133c104.783,0 209.592,1.283 314.337,-0.796c51.834,-1.046 97.905,-21.183 128.921,-64.754c47.996,-67.392 52.809,-140.513 17.734,-214.4c-32.796,-69.092 -92.867,-94.813 -166.479,-94.746c-92.767,0.058 -185.525,-0.2 -278.292,-0.2c-8.279,0 -16.558,0.863 -25.421,1.354l0,371.409Zm-21.37,21.96l0,-755.383c10.4,-0.559 19.459,-1.446 28.513,-1.45c91.175,-0.113 182.342,-0.192 273.512,-0.03c101.117,0.163 173.563,71.838 175.48,173.284c1.425,75.3 -21.909,121.191 -88.675,172.137c4.812,2.442 8.55,4.971 12.666,6.321c108.292,35.917 140.254,147.35 130.171,221.717c-3.742,27.608 -12.025,55.708 -23.937,80.871c-31.663,66.916 -89.371,101.05 -160.659,103.591c-110.825,3.959 -221.866,1.296 -332.821,1.325c-4.1,0 -8.208,-1.337 -14.25,-2.383" style="fill:#231f20;"/><path d="M6692.42,1617.86c202.925,-0.354 364.992,-165.558 365.004,-372.046c0,-200.358 -166.504,-368.1 -366.4,-365.466c-229.225,3.02 -360.321,193.987 -363.992,357.804c-4.7,209.133 163.838,380.741 365.388,379.708m-1.57,20.97c-211.908,-0.583 -385.871,-176.421 -385.412,-389.504c0.479,-215.671 174.2,-391.034 387.179,-390.829c214.212,0.2 391.075,179.041 387.196,396.516c-3.833,213.804 -178.484,386.263 -388.963,383.817" style="fill:#231f20;"/><path d="M6692.42,1617.86c202.925,-0.354 364.992,-165.558 365.004,-372.046c0,-200.358 -166.504,-368.1 -366.4,-365.466c-229.225,3.02 -360.321,193.987 -363.992,357.804c-4.7,209.133 163.838,380.741 365.388,379.708m-1.57,20.97c-211.908,-0.583 -385.871,-176.421 -385.412,-389.504c0.479,-215.671 174.2,-391.034 387.179,-390.829c214.212,0.2 391.075,179.041 387.196,396.516c-3.833,213.804 -178.484,386.263 -388.963,383.817" style="fill:#231f20;"/><path d="M7176.65,923.584l0,702.379l-19.571,0l0,-755.192c18.65,-5.25 22.666,8.742 29.008,17.913c97.342,140.617 194.475,281.362 291.617,422.121c57.604,83.458 115.112,166.975 172.75,250.421c4.675,6.783 9.937,13.137 19.004,18.45l0,-706.117c6.75,-1.671 11.325,-2.8 18.658,-4.621l0,756.017c-16.487,8.408 -23.071,-3.629 -30.375,-14.234c-46.329,-67.216 -92.696,-134.412 -139.016,-201.633c-106.763,-154.987 -213.513,-309.996 -320.33,-464.954c-5.158,-7.5 -10.895,-14.588 -16.366,-21.875c-1.796,0.446 -3.584,0.887 -5.379,1.325" style="fill:#231f20;"/><path d="M7176.65,923.584l0,702.379l-19.571,0l0,-755.192c18.65,-5.25 22.666,8.742 29.008,17.913c97.342,140.617 194.475,281.362 291.617,422.121c57.604,83.458 115.112,166.975 172.75,250.421c4.675,6.783 9.937,13.137 19.004,18.45l0,-706.117c6.75,-1.671 11.325,-2.8 18.658,-4.621l0,756.017c-16.487,8.408 -23.071,-3.629 -30.375,-14.234c-46.329,-67.216 -92.696,-134.412 -139.016,-201.633c-106.763,-154.987 -213.513,-309.996 -320.33,-464.954c-5.158,-7.5 -10.895,-14.588 -16.366,-21.875c-1.796,0.446 -3.584,0.887 -5.379,1.325" style="fill:#231f20;"/><path d="M3715.49,921.394l0,702.35c-6.337,1.608 -11.637,2.954 -19.604,4.97l0,-758.32c15.579,-5.609 20.317,6.029 26.479,14.95c87.825,127.337 175.617,254.712 263.438,382.058c69.279,100.454 138.6,200.896 207.941,301.317c3.717,5.37 7.842,10.462 15.555,20.691l0,-717.675c6.829,-0.362 11.383,-0.612 17.745,-0.946l0,753.509c-17.854,9.233 -23.979,-3.346 -31.237,-13.879c-63.904,-92.671 -127.888,-185.296 -191.783,-277.988c-91.192,-132.325 -182.325,-264.683 -273.513,-397.017c-3.387,-4.916 -7.004,-9.679 -10.517,-14.52c-1.504,0.166 -3.004,0.337 -4.504,0.5" style="fill:#231f20;"/><path d="M3715.49,921.394l0,702.35c-6.337,1.608 -11.637,2.954 -19.604,4.97l0,-758.32c15.579,-5.609 20.317,6.029 26.479,14.95c87.825,127.337 175.617,254.712 263.438,382.058c69.279,100.454 138.6,200.896 207.941,301.317c3.717,5.37 7.842,10.462 15.555,20.691l0,-717.675c6.829,-0.362 11.383,-0.612 17.745,-0.946l0,753.509c-17.854,9.233 -23.979,-3.346 -31.237,-13.879c-63.904,-92.671 -127.888,-185.296 -191.783,-277.988c-91.192,-132.325 -182.325,-264.683 -273.513,-397.017c-3.387,-4.916 -7.004,-9.679 -10.517,-14.52c-1.504,0.166 -3.004,0.337 -4.504,0.5" style="fill:#231f20;"/><path d="M3186.07,2196.49l360.167,0c-60.25,-154.783 -119.375,-306.691 -180.487,-463.691c-60.984,157.366 -120.013,309.716 -179.68,463.691m369.47,23.49l-379.745,0c-33.971,83.575 -67.821,166.829 -102.071,251.087l-22.054,0c101.729,-257.475 202.366,-512.195 303.083,-767.095l22.9,0c100.492,254.008 201.329,508.891 302.262,764.033c-4.279,2.154 -6.391,3.9 -8.695,4.192c-3.25,0.416 -6.634,-0.255 -11.93,-0.588c-34.516,-83.704 -69.075,-167.517 -103.75,-251.629" style="fill:#231f20;"/><path d="M3186.07,2196.49l360.167,0c-60.25,-154.783 -119.375,-306.691 -180.487,-463.691c-60.984,157.366 -120.013,309.716 -179.68,463.691m369.47,23.49l-379.745,0c-33.971,83.575 -67.821,166.829 -102.071,251.087l-22.054,0c101.729,-257.475 202.366,-512.195 303.083,-767.095l22.9,0c100.492,254.008 201.329,508.891 302.262,764.033c-4.279,2.154 -6.391,3.9 -8.695,4.192c-3.25,0.416 -6.634,-0.255 -11.93,-0.588c-34.516,-83.704 -69.075,-167.517 -103.75,-251.629" style="fill:#231f20;"/><path d="M5167.35,889.514c-60.763,156.833 -119.404,308.154 -179.383,462.942l359.37,0c-60.016,-154.363 -118.866,-305.75 -179.987,-462.942m189.02,485.77l-378.213,0c-33.608,82.492 -67.483,165.65 -101.937,250.254l-22.234,0c101.325,-256.2 201.801,-510.258 302.521,-764.933l22.3,0c100.684,254.346 201.017,507.791 302.367,763.846c-7.913,0.891 -13.887,1.566 -21.233,2.404c-34.746,-84.396 -68.959,-167.504 -103.571,-251.571" style="fill:#231f20;"/><path d="M5167.35,889.514c-60.763,156.833 -119.404,308.154 -179.383,462.942l359.37,0c-60.016,-154.363 -118.866,-305.75 -179.987,-462.942m189.02,485.77l-378.213,0c-33.608,82.492 -67.483,165.65 -101.937,250.254l-22.234,0c101.325,-256.2 201.801,-510.258 302.521,-764.933l22.3,0c100.684,254.346 201.017,507.791 302.367,763.846c-7.913,0.891 -13.887,1.566 -21.233,2.404c-34.746,-84.396 -68.959,-167.504 -103.571,-251.571" style="fill:#231f20;"/><path d="M6589.93,510.274c-59.967,-154.216 -118.863,-305.662 -177.754,-457.116c-1.821,0.058 -3.646,0.116 -5.467,0.175c-58.692,151.662 -117.371,303.325 -176.808,456.941l360.029,0Zm133.54,271.24c-5.738,1.871 -8.063,3.225 -10.392,3.238c-3.283,0.012 -6.571,-0.959 -11.258,-1.755c-34.196,-83.066 -68.413,-166.187 -102.721,-249.516l-379.308,0c-33.875,83.237 -67.755,166.441 -101.967,250.508c-6.921,-0.354 -12.383,-0.621 -21.675,-1.083c101.621,-256.771 202.196,-510.913 302.971,-765.5c7.271,-0.359 13.004,-0.638 21.296,-1.038c101.012,255.025 201.875,509.704 303.054,765.146" style="fill:#231f20;"/><path d="M6589.93,510.274c-59.967,-154.216 -118.863,-305.662 -177.754,-457.116c-1.821,0.058 -3.646,0.116 -5.467,0.175c-58.692,151.662 -117.371,303.325 -176.808,456.941l360.029,0Zm133.54,271.24c-5.738,1.871 -8.063,3.225 -10.392,3.238c-3.283,0.012 -6.571,-0.959 -11.258,-1.755c-34.196,-83.066 -68.413,-166.187 -102.721,-249.516l-379.308,0c-33.875,83.237 -67.755,166.441 -101.967,250.508c-6.921,-0.354 -12.383,-0.621 -21.675,-1.083c101.621,-256.771 202.196,-510.913 302.971,-765.5c7.271,-0.359 13.004,-0.638 21.296,-1.038c101.012,255.025 201.875,509.704 303.054,765.146" style="fill:#231f20;"/><path d="M2585.56,600.146c6.545,-2.112 11.87,-3.829 18.716,-6.041c2.609,6.446 5.954,11.604 6.725,17.104c6.859,49.362 33.963,85.575 73.771,113.075c94.279,65.15 234.175,64.846 328.338,-0.521c59.9,-41.567 86.337,-98.808 76.937,-171.258c-6.621,-50.984 -33.429,-89.642 -82.196,-106.392c-37.779,-12.979 -77.946,-19.804 -117.541,-26.508c-49.905,-8.442 -100.421,-13.2 -150.405,-21.229c-17.558,-2.817 -34.912,-9.238 -51.345,-16.346c-58.625,-25.35 -88.417,-71.988 -93.263,-134.359c-7.325,-94.554 33.138,-162.783 120.054,-201.595c85.046,-37.984 171.746,-39.838 257.654,-3.388c60.355,25.621 101.08,70.058 116.596,135.25c0.596,2.496 0.992,5.067 1.121,7.621c0.088,1.654 -0.492,3.337 -1.092,6.921c-4.412,1.258 -9.575,2.729 -14.762,4.212c-13.292,-49.279 -34.825,-90.991 -78.292,-118.379c-51.412,-32.404 -108.129,-44.129 -167.629,-39.979c-64.029,4.458 -123.304,23.208 -169.517,71.217c-47.816,49.67 -59.691,129.687 -29.12,191.708c15.708,31.862 40.895,54.817 73.958,64.133c42.704,12.021 86.829,19.446 130.675,26.842c47.358,7.992 95.667,10.987 142.575,20.825c160.033,33.592 164.087,213.517 86.271,293.546c-44.371,45.625 -98.325,71.558 -160.146,81.579c-83.9,13.604 -162.521,-0.567 -233.55,-49.096c-47.938,-32.754 -77.388,-77.137 -84.533,-138.942" style="fill:#231f20;"/><path d="M2585.56,600.146c6.545,-2.112 11.87,-3.829 18.716,-6.041c2.609,6.446 5.954,11.604 6.725,17.104c6.859,49.362 33.963,85.575 73.771,113.075c94.279,65.15 234.175,64.846 328.338,-0.521c59.9,-41.567 86.337,-98.808 76.937,-171.258c-6.621,-50.984 -33.429,-89.642 -82.196,-106.392c-37.779,-12.979 -77.946,-19.804 -117.541,-26.508c-49.905,-8.442 -100.421,-13.2 -150.405,-21.229c-17.558,-2.817 -34.912,-9.238 -51.345,-16.346c-58.625,-25.35 -88.417,-71.988 -93.263,-134.359c-7.325,-94.554 33.138,-162.783 120.054,-201.595c85.046,-37.984 171.746,-39.838 257.654,-3.388c60.355,25.621 101.08,70.058 116.596,135.25c0.596,2.496 0.992,5.067 1.121,7.621c0.088,1.654 -0.492,3.337 -1.092,6.921c-4.412,1.258 -9.575,2.729 -14.762,4.212c-13.292,-49.279 -34.825,-90.991 -78.292,-118.379c-51.412,-32.404 -108.129,-44.129 -167.629,-39.979c-64.029,4.458 -123.304,23.208 -169.517,71.217c-47.816,49.67 -59.691,129.687 -29.12,191.708c15.708,31.862 40.895,54.817 73.958,64.133c42.704,12.021 86.829,19.446 130.675,26.842c47.358,7.992 95.667,10.987 142.575,20.825c160.033,33.592 164.087,213.517 86.271,293.546c-44.371,45.625 -98.325,71.558 -160.146,81.579c-83.9,13.604 -162.521,-0.567 -233.55,-49.096c-47.938,-32.754 -77.388,-77.137 -84.533,-138.942" style="fill:#231f20;"/><path d="M4293.85,1442.48c6.75,-1.125 11.575,-1.941 17.916,-3c2.084,6.955 4.579,13.2 5.784,19.671c8.683,46.771 35.241,81.379 73.437,107.85c100.484,69.659 253.592,64.229 344.838,-12.612c57.075,-48.075 74.779,-109.459 56.371,-180.917c-11.109,-43.092 -39.65,-73.65 -81.546,-86.142c-41.667,-12.416 -85.117,-19.325 -128.129,-26.595c-48.213,-8.163 -97.509,-10.992 -144.98,-21.992c-28.4,-6.588 -56.975,-20.617 -80.583,-37.958c-49.229,-36.155 -58.892,-91.142 -56.079,-147.83c3.108,-62.716 33.879,-111.854 86.854,-144.433c100.083,-61.562 204.788,-65.212 309.625,-13.921c56.262,27.529 90.713,74.613 101.021,139.638c-5.85,1.812 -11.017,3.396 -15.688,4.837c-1.979,-2.604 -3.591,-3.804 -3.925,-5.296c-21.033,-94.3 -88.575,-134.65 -176.25,-149.312c-57.05,-9.538 -113.47,-2.771 -166.65,20.504c-64,28.013 -109.287,73.675 -114.529,146.367c-6.079,84.321 28.792,143.487 111.734,164.946c46.254,11.958 94.712,15.45 142.195,22.595c35.646,5.367 71.9,8.021 106.855,16.25c62.891,14.821 112.158,47.296 130.012,114.496c18.488,69.571 4.229,131.163 -45.458,183.504c-39.854,41.975 -90.067,65.292 -146.209,76.167c-94.3,18.275 -181.291,1.883 -257.75,-58.229c-40.3,-31.671 -63.412,-73.65 -68.866,-128.588" style="fill:#231f20;"/><path d="M4293.85,1442.48c6.75,-1.125 11.575,-1.941 17.916,-3c2.084,6.955 4.579,13.2 5.784,19.671c8.683,46.771 35.241,81.379 73.437,107.85c100.484,69.659 253.592,64.229 344.838,-12.612c57.075,-48.075 74.779,-109.459 56.371,-180.917c-11.109,-43.092 -39.65,-73.65 -81.546,-86.142c-41.667,-12.416 -85.117,-19.325 -128.129,-26.595c-48.213,-8.163 -97.509,-10.992 -144.98,-21.992c-28.4,-6.588 -56.975,-20.617 -80.583,-37.958c-49.229,-36.155 -58.892,-91.142 -56.079,-147.83c3.108,-62.716 33.879,-111.854 86.854,-144.433c100.083,-61.562 204.788,-65.212 309.625,-13.921c56.262,27.529 90.713,74.613 101.021,139.638c-5.85,1.812 -11.017,3.396 -15.688,4.837c-1.979,-2.604 -3.591,-3.804 -3.925,-5.296c-21.033,-94.3 -88.575,-134.65 -176.25,-149.312c-57.05,-9.538 -113.47,-2.771 -166.65,20.504c-64,28.013 -109.287,73.675 -114.529,146.367c-6.079,84.321 28.792,143.487 111.734,164.946c46.254,11.958 94.712,15.45 142.195,22.595c35.646,5.367 71.9,8.021 106.855,16.25c62.891,14.821 112.158,47.296 130.012,114.496c18.488,69.571 4.229,131.163 -45.458,183.504c-39.854,41.975 -90.067,65.292 -146.209,76.167c-94.3,18.275 -181.291,1.883 -257.75,-58.229c-40.3,-31.671 -63.412,-73.65 -68.866,-128.588" style="fill:#231f20;"/><path d="M2586.03,1442.07c7.037,-0.967 13.283,-1.825 20.012,-2.75c2.05,5.604 4.242,9.433 4.796,13.491c7.3,53.309 37.15,91.275 81.229,119.421c98.667,62.984 241.396,57.117 332.246,-13.775c55.404,-43.225 75.692,-100.775 64.796,-168.954c-8.113,-50.812 -37.404,-87.85 -86.675,-102.662c-41.588,-12.509 -85.15,-18.925 -128.15,-26.209c-47.333,-8.025 -95.496,-11.733 -142.371,-21.712c-25.396,-5.4 -49.783,-18.204 -72.908,-30.817c-24.817,-13.533 -41.825,-36.017 -51.513,-62.487c-29.046,-79.375 -18.041,-167.605 58.492,-227.196c91.941,-71.588 248.046,-77.613 344.566,-12.142c45.567,30.908 73.755,75.638 79.876,128.279c-4.83,1.459 -9.98,3.004 -14.426,4.342c-2.312,-2.504 -4.208,-3.588 -4.499,-5c-19.663,-93.9 -86.846,-133.8 -173.146,-148.933c-57.646,-10.1 -114.942,-4.13 -169.134,19.775c-52.575,23.187 -95.45,58.145 -108.062,116.441c-21.638,99.975 13.979,173.846 110.446,196.546c44.908,10.563 91.437,14.154 137.183,21.246c38.95,6.025 78.404,10.154 116.65,19.254c148.892,35.417 153.575,205.992 84.825,283.754c-43.563,49.271 -98.471,76.834 -161.813,88.554c-85.733,15.859 -165.962,0.755 -238.412,-48.575c-48.496,-33.008 -78.771,-77.929 -84.008,-139.891" style="fill:#231f20;"/><path d="M2586.03,1442.07c7.037,-0.967 13.283,-1.825 20.012,-2.75c2.05,5.604 4.242,9.433 4.796,13.491c7.3,53.309 37.15,91.275 81.229,119.421c98.667,62.984 241.396,57.117 332.246,-13.775c55.404,-43.225 75.692,-100.775 64.796,-168.954c-8.113,-50.812 -37.404,-87.85 -86.675,-102.662c-41.588,-12.509 -85.15,-18.925 -128.15,-26.209c-47.333,-8.025 -95.496,-11.733 -142.371,-21.712c-25.396,-5.4 -49.783,-18.204 -72.908,-30.817c-24.817,-13.533 -41.825,-36.017 -51.513,-62.487c-29.046,-79.375 -18.041,-167.605 58.492,-227.196c91.941,-71.588 248.046,-77.613 344.566,-12.142c45.567,30.908 73.755,75.638 79.876,128.279c-4.83,1.459 -9.98,3.004 -14.426,4.342c-2.312,-2.504 -4.208,-3.588 -4.499,-5c-19.663,-93.9 -86.846,-133.8 -173.146,-148.933c-57.646,-10.1 -114.942,-4.13 -169.134,19.775c-52.575,23.187 -95.45,58.145 -108.062,116.441c-21.638,99.975 13.979,173.846 110.446,196.546c44.908,10.563 91.437,14.154 137.183,21.246c38.95,6.025 78.404,10.154 116.65,19.254c148.892,35.417 153.575,205.992 84.825,283.754c-43.563,49.271 -98.471,76.834 -161.813,88.554c-85.733,15.859 -165.962,0.755 -238.412,-48.575c-48.496,-33.008 -78.771,-77.929 -84.008,-139.891" style="fill:#231f20;"/><path d="M4925.15,556.169l21.284,0c-5.275,11.725 -8.921,21.054 -13.53,29.879c-72.429,138.904 -218.054,216.766 -371.729,198.912c-149.046,-17.312 -278.683,-134.916 -314.379,-285.175c-46.55,-195.941 62.313,-394.416 249.117,-454.212c175.241,-56.088 368.179,29.983 443.591,197.937c1.721,3.825 3.117,7.792 5.755,14.484c-7.855,0.737 -13.775,1.295 -20.309,1.895c-25.246,-54.591 -59.637,-100.383 -105.846,-136.395c-197.333,-153.8 -483.929,-56.05 -550.35,187.454c-53.012,194.316 61.125,394.054 254.063,444.616c150.462,39.434 312.183,-32.875 389.083,-174.004c4.109,-7.533 7.95,-15.212 13.25,-25.391" style="fill:#231f20;"/><path d="M4925.15,556.169l21.284,0c-5.275,11.725 -8.921,21.054 -13.53,29.879c-72.429,138.904 -218.054,216.766 -371.729,198.912c-149.046,-17.312 -278.683,-134.916 -314.379,-285.175c-46.55,-195.941 62.313,-394.416 249.117,-454.212c175.241,-56.088 368.179,29.983 443.591,197.937c1.721,3.825 3.117,7.792 5.755,14.484c-7.855,0.737 -13.775,1.295 -20.309,1.895c-25.246,-54.591 -59.637,-100.383 -105.846,-136.395c-197.333,-153.8 -483.929,-56.05 -550.35,187.454c-53.012,194.316 61.125,394.054 254.063,444.616c150.462,39.434 312.183,-32.875 389.083,-174.004c4.109,-7.533 7.95,-15.212 13.25,-25.391" style="fill:#231f20;"/><path d="M8270.3,764.844l397.592,0c0.821,6.771 1.375,11.454 2.233,18.662l-421.471,0l0,-750.366c18.896,-6.688 364.609,-9.438 415.884,-3.313c0.808,4.096 1.712,8.704 3.204,16.296l-397.204,0l0,349.412l387.362,0c0.404,7.588 0.658,12.255 1.084,20.321l-388.684,0l0,348.988Z" style="fill:#231f20;"/><path d="M8270.3,764.844l397.592,0c0.821,6.771 1.375,11.454 2.233,18.662l-421.471,0l0,-750.366c18.896,-6.688 364.609,-9.438 415.884,-3.313c0.808,4.096 1.712,8.704 3.204,16.296l-397.204,0l0,349.412l387.362,0c0.404,7.588 0.658,12.255 1.084,20.321l-388.684,0l0,348.988Z" style="fill:#231f20;"/><path d="M3784.94,764.114l396.354,0c1.146,7.184 1.967,12.388 3.155,19.829l-420.775,0l0,-754.308l414.779,0c0.821,4.446 1.658,8.996 3.1,16.8l-396.559,0l0,348.533l387.884,0l0,21.78l-387.938,0l0,347.366Z" style="fill:#231f20;"/><path d="M3784.94,764.114l396.354,0c1.146,7.184 1.967,12.388 3.155,19.829l-420.775,0l0,-754.308l414.779,0c0.821,4.446 1.658,8.996 3.1,16.8l-396.559,0l0,348.533l387.884,0l0,21.78l-387.938,0l0,347.366Z" style="fill:#231f20;"/><path d="M3218.34,476.416c5.421,1.054 8.679,2.233 11.946,2.242c77.295,0.112 154.595,0.491 231.887,-0.209c17,-0.154 34.2,-3.129 50.9,-6.7c87.646,-18.766 144.688,-100.266 152.129,-185.854c9.75,-112.116 -55.354,-239.071 -211.354,-238.279c-64.412,0.333 -128.825,0.058 -193.242,0.058l-42.266,0l0,428.742Zm-21.04,-450.037c86.529,0 169.025,-0.163 251.508,0.158c15.405,0.058 30.946,1.092 46.18,3.337c95.304,14.017 156.1,69.35 180.762,160.8c24.871,92.242 9.321,177.788 -60.054,247.967c-36.429,36.85 -82.383,56.654 -134.133,57.925c-76.505,1.883 -153.075,1.054 -229.617,1.371c-10.238,0.042 -20.463,0.008 -34.113,0.008l0,285.479l-20.533,0l0,-757.045Z" style="fill:#231f20;"/><path d="M3218.34,476.416c5.421,1.054 8.679,2.233 11.946,2.242c77.295,0.112 154.595,0.491 231.887,-0.209c17,-0.154 34.2,-3.129 50.9,-6.7c87.646,-18.766 144.688,-100.266 152.129,-185.854c9.75,-112.116 -55.354,-239.071 -211.354,-238.279c-64.412,0.333 -128.825,0.058 -193.242,0.058l-42.266,0l0,428.742Zm-21.04,-450.037c86.529,0 169.025,-0.163 251.508,0.158c15.405,0.058 30.946,1.092 46.18,3.337c95.304,14.017 156.1,69.35 180.762,160.8c24.871,92.242 9.321,177.788 -60.054,247.967c-36.429,36.85 -82.383,56.654 -134.133,57.925c-76.505,1.883 -153.075,1.054 -229.617,1.371c-10.238,0.042 -20.463,0.008 -34.113,0.008l0,285.479l-20.533,0l0,-757.045Z" style="fill:#231f20;"/><path d="M3197.48,1626.04l0,-752.837l417.279,0l0,16.758l-396.066,0l0,347.909l386.879,0l0,21.612l-386.696,0l0,347.533l396.271,0c1.054,7.667 1.696,12.317 2.617,19.025l-420.284,0l0,0Z" style="fill:#231f20;"/><path d="M3197.48,1626.04l0,-752.837l417.279,0l0,16.758l-396.066,0l0,347.909l386.879,0l0,21.612l-386.696,0l0,347.533l396.271,0c1.054,7.667 1.696,12.317 2.617,19.025l-420.284,0l0,0Z" style="fill:#231f20;"/><path d="M5026.22,28.09c7.467,0.921 11.509,1.417 19.159,2.371l0,33.238c0,168.479 0.546,336.966 -0.279,505.45c-0.267,56.741 17.3,104.512 61.02,141.358c11.109,9.354 23.088,18.254 35.971,24.825c98.667,50.421 198.096,51.871 295.925,-1.004c63.184,-34.15 96.679,-88.009 95.671,-161.642c-0.721,-52.429 -0.133,-104.871 -0.133,-157.312l0,-350.73l0,-32.304c6.325,-1.387 11.554,-2.529 16.837,-3.683c1.742,3.821 3.521,6.054 3.675,8.392c0.496,7.704 0.529,15.454 0.538,23.179c0.012,169.354 -1.075,338.708 0.471,508.041c0.766,84.75 -36.475,146.421 -108.734,184.78c-112.908,59.937 -226.416,57.508 -334.566,-13.038c-57.592,-37.571 -87.525,-92.637 -87.384,-162.987c0.354,-174.505 0.092,-349.009 0.179,-523.513c0.005,-7.529 0.942,-15.071 1.65,-25.421" style="fill:#231f20;"/><path d="M5026.22,28.09c7.467,0.921 11.509,1.417 19.159,2.371l0,33.238c0,168.479 0.546,336.966 -0.279,505.45c-0.267,56.741 17.3,104.512 61.02,141.358c11.109,9.354 23.088,18.254 35.971,24.825c98.667,50.421 198.096,51.871 295.925,-1.004c63.184,-34.15 96.679,-88.009 95.671,-161.642c-0.721,-52.429 -0.133,-104.871 -0.133,-157.312l0,-350.73l0,-32.304c6.325,-1.387 11.554,-2.529 16.837,-3.683c1.742,3.821 3.521,6.054 3.675,8.392c0.496,7.704 0.529,15.454 0.538,23.179c0.012,169.354 -1.075,338.708 0.471,508.041c0.766,84.75 -36.475,146.421 -108.734,184.78c-112.908,59.937 -226.416,57.508 -334.566,-13.038c-57.592,-37.571 -87.525,-92.637 -87.384,-162.987c0.354,-174.505 0.092,-349.009 0.179,-523.513c0.005,-7.529 0.942,-15.071 1.65,-25.421" style="fill:#231f20;"/><path d="M7567.83,28.223l22.35,0c96.346,244.546 192.804,489.337 291.404,739.596c98.942,-249.959 195.704,-494.405 292.663,-739.325l22.145,0c-101.437,256.75 -201.891,510.954 -302.712,766.112c-7.504,0.383 -14.013,0.717 -22.425,1.15c-100.825,-255.029 -201.354,-509.329 -303.425,-767.533" style="fill:#231f20;"/><path d="M7567.83,28.223l22.35,0c96.346,244.546 192.804,489.337 291.404,739.596c98.942,-249.959 195.704,-494.405 292.663,-739.325l22.145,0c-101.437,256.75 -201.891,510.954 -302.712,766.112c-7.504,0.383 -14.013,0.717 -22.425,1.15c-100.825,-255.029 -201.354,-509.329 -303.425,-767.533" style="fill:#231f20;"/><path d="M7382.61,764.664l155.4,0c0.704,6.825 1.254,12.083 1.979,19.154l-337.542,0l0,-19.588l156.225,0l0,-717.025l-157.662,0c0.404,-7.812 0.608,-11.783 0.921,-17.62l336.546,0c0.454,5.233 0.858,9.837 1.479,16.887l-157.346,0l0,718.192Z" style="fill:#231f20;"/><path d="M7382.61,764.664l155.4,0c0.704,6.825 1.254,12.083 1.979,19.154l-337.542,0l0,-19.588l156.225,0l0,-717.025l-157.662,0c0.404,-7.812 0.608,-11.783 0.921,-17.62l336.546,0c0.454,5.233 0.858,9.837 1.479,16.887l-157.346,0l0,718.192Z" style="fill:#231f20;"/><path d="M5922.71,890.634l-260.792,0l0,734.775l-20.421,0l0.001,-734.6l-258.446,0l0,-19.65l536.904,0c0.767,5.438 1.433,10.083 2.754,19.475" style="fill:#231f20;"/><path d="M5922.71,890.634l-260.792,0l0,734.775l-20.421,0l0.001,-734.6l-258.446,0l0,-19.65l536.904,0c0.767,5.438 1.433,10.083 2.754,19.475" style="fill:#231f20;"/><path d="M6139.98,888.344l0,718.205l155.687,0c1.45,7.416 2.354,12 3.692,18.862l-339.229,0c0.308,-5.596 0.575,-10.254 1.004,-17.971l156.383,0l0,-716.783c-9.146,-0.408 -18.241,-1.129 -27.325,-1.163c-36.987,-0.133 -73.966,0.188 -110.933,-0.25c-8.129,-0.1 -20.725,4.2 -19.117,-12.195c17.225,-6.359 296.888,-8.617 337.242,-2.538c0.275,3.458 0.571,7.296 1.075,13.833l-158.479,0l0,0Z" style="fill:#231f20;"/><path d="M6139.98,888.344l0,718.205l155.687,0c1.45,7.416 2.354,12 3.692,18.862l-339.229,0c0.308,-5.596 0.575,-10.254 1.004,-17.971l156.383,0l0,-716.783c-9.146,-0.408 -18.241,-1.129 -27.325,-1.163c-36.987,-0.133 -73.966,0.188 -110.933,-0.25c-8.129,-0.1 -20.725,4.2 -19.117,-12.195c17.225,-6.359 296.888,-8.617 337.242,-2.538c0.275,3.458 0.571,7.296 1.075,13.833l-158.479,0l0,0Z" style="fill:#231f20;"/><path d="M3033.9,2449.92l0,21.375l-422.171,0l0,-754.33c1.888,-0.912 4.038,-2.725 6.288,-2.858c3.237,-0.192 6.541,0.846 13.308,1.908l0,733.905l402.575,0Z" style="fill:#231f20;"/><path d="M3033.9,2449.92l0,21.375l-422.171,0l0,-754.33c1.888,-0.912 4.038,-2.725 6.288,-2.858c3.237,-0.192 6.541,0.846 13.308,1.908l0,733.905l402.575,0Z" style="fill:#231f20;"/><path d="M1723.11,1216.14l-580.734,0l0,285.179l580.734,0l0,-285.179Zm-593.49,298.04l0,-310.316l601.834,0c9.387,19.408 11.195,280.845 1.82,310.483c-7.641,1.183 -16.604,3.767 -25.575,3.792c-183.066,0.233 -366.129,0.225 -549.204,0.004c-9,0 -18.004,-2.413 -28.875,-3.963" style="fill:#231f20;"/><path d="M1723.11,1216.14l-580.734,0l0,285.179l580.734,0l0,-285.179Zm-593.49,298.04l0,-310.316l601.834,0c9.387,19.408 11.195,280.845 1.82,310.483c-7.641,1.183 -16.604,3.767 -25.575,3.792c-183.066,0.233 -366.129,0.225 -549.204,0.004c-9,0 -18.004,-2.413 -28.875,-3.963" style="fill:#231f20;"/><path d="M7161.26,28.652c0.404,5.496 0.754,10.267 1.35,18.129l-261.205,0l0,32.988c-0.012,224.379 -0.012,448.758 -0.033,673.129c0,7.733 0.871,15.741 -0.887,23.083c-0.975,4.079 -6.584,7.05 -13.963,9.271c-4.017,-245.413 -3.592,-489.671 -3.817,-737.054l-260.037,0c-0.413,-7.771 -0.671,-12.484 -1.05,-19.546l539.642,0Z" style="fill:#231f20;"/><path d="M7161.26,28.652c0.404,5.496 0.754,10.267 1.35,18.129l-261.205,0l0,32.988c-0.012,224.379 -0.012,448.758 -0.033,673.129c0,7.733 0.871,15.741 -0.887,23.083c-0.975,4.079 -6.584,7.05 -13.963,9.271c-4.017,-245.413 -3.592,-489.671 -3.817,-737.054l-260.037,0c-0.413,-7.771 -0.671,-12.484 -1.05,-19.546l539.642,0Z" style="fill:#231f20;"/><path d="M5655.31,29.779l18.004,0l0,734.296l404.075,0l0,19.858l-422.079,0l0,-754.154Z" style="fill:#231f20;"/><path d="M5655.31,29.779l18.004,0l0,734.296l404.075,0l0,19.858l-422.079,0l0,-754.154Z" style="fill:#231f20;"/><path d="M318.219,1756.08c0,52.938 -1.192,103.546 0.45,154.054c0.966,29.825 3.104,60.363 10.508,89.088c18.537,71.825 70.5,110.908 144.542,112.6c15.433,0.346 31.175,0.771 46.312,-1.679c74.229,-12.079 117.838,-58.192 129.7,-136.638c14.858,-98.296 -4.204,-189.758 -57.187,-273.891c-40.592,-64.455 -90.78,-120.896 -146.292,-172.788c-65.35,-61.075 -131.708,-121.129 -195.796,-183.508c-115.267,-112.196 -193.437,-245.729 -217.125,-406.279c-17.892,-121.296 -11.175,-241.963 32.129,-358.3c48.238,-129.617 140.021,-212.167 274.146,-245.492c110.517,-27.463 221.688,-26.65 331.408,4.362c143.309,40.513 229.671,138.35 271.371,278.367c27.575,92.621 29.65,187.8 25.988,285.492l-299.159,0c0,-13.167 0.6,-25.796 -0.104,-38.354c-2.5,-44.525 -0.862,-89.909 -9.112,-133.384c-21.221,-111.896 -146,-163.041 -243.017,-102.275c-33.296,20.854 -52.117,52.25 -61.346,89.096c-21.654,86.467 -12.65,170.717 23.663,251.692c26.266,58.571 62.237,110.629 109.262,154.975c71.959,67.846 143.075,136.604 214.875,204.637c61.484,58.254 115.421,123.225 162.521,193.084c63.188,93.725 95.471,199.108 103.704,311.8c6.754,92.479 1.6,184.091 -26.779,272.854c-54.242,169.608 -173.25,263.433 -347.237,289.2c-88.305,13.066 -176.892,11.721 -263.467,-12.225c-160.942,-44.504 -256.521,-152.263 -296.029,-312.338c-14.9,-60.408 -19.7,-122.071 -20.55,-184.062c-0.592,-42.754 -0.113,-85.529 -0.113,-130.088l302.734,0Z" style="fill:#fff;"/><path d="M318.219,1756.08c0,52.938 -1.192,103.546 0.45,154.054c0.966,29.825 3.104,60.363 10.508,89.088c18.537,71.825 70.5,110.908 144.542,112.6c15.433,0.346 31.175,0.771 46.312,-1.679c74.229,-12.079 117.838,-58.192 129.7,-136.638c14.858,-98.296 -4.204,-189.758 -57.187,-273.891c-40.592,-64.455 -90.78,-120.896 -146.292,-172.788c-65.35,-61.075 -131.708,-121.129 -195.796,-183.508c-115.267,-112.196 -193.437,-245.729 -217.125,-406.279c-17.892,-121.296 -11.175,-241.963 32.129,-358.3c48.238,-129.617 140.021,-212.167 274.146,-245.492c110.517,-27.463 221.688,-26.65 331.408,4.362c143.309,40.513 229.671,138.35 271.371,278.367c27.575,92.621 29.65,187.8 25.988,285.492l-299.159,0c0,-13.167 0.6,-25.796 -0.104,-38.354c-2.5,-44.525 -0.862,-89.909 -9.112,-133.384c-21.221,-111.896 -146,-163.041 -243.017,-102.275c-33.296,20.854 -52.117,52.25 -61.346,89.096c-21.654,86.467 -12.65,170.717 23.663,251.692c26.266,58.571 62.237,110.629 109.262,154.975c71.959,67.846 143.075,136.604 214.875,204.637c61.484,58.254 115.421,123.225 162.521,193.084c63.188,93.725 95.471,199.108 103.704,311.8c6.754,92.479 1.6,184.091 -26.779,272.854c-54.242,169.608 -173.25,263.433 -347.237,289.2c-88.305,13.066 -176.892,11.721 -263.467,-12.225c-160.942,-44.504 -256.521,-152.263 -296.029,-312.338c-14.9,-60.408 -19.7,-122.071 -20.55,-184.062c-0.592,-42.754 -0.113,-85.529 -0.113,-130.088l302.734,0Z" style="fill:#fff;"/><path d="M2410.4,2467.49l-381.083,0l0,-1872.33l-297.946,0l0,-267.159c25.525,-2.22 51.708,-4.433 77.879,-6.795c75.113,-6.805 144.238,-30.03 205.442,-74.984c29.516,-21.679 54.521,-47.362 70.921,-80.479c23.966,-48.396 47.587,-96.962 72.987,-148.8l251.8,0l0,2450.55l0,-0.003Z" style="fill:#fff;"/><path d="M2410.4,2467.49l-381.083,0l0,-1872.33l-297.946,0l0,-267.159c25.525,-2.22 51.708,-4.433 77.879,-6.795c75.113,-6.805 144.238,-30.03 205.442,-74.984c29.516,-21.679 54.521,-47.362 70.921,-80.479c23.966,-48.396 47.587,-96.962 72.987,-148.8l251.8,0l0,2450.55l0,-0.003Z" style="fill:#fff;"/><g><rect x="1142.37" y="1216.14" width="580.733" height="285.179" style="fill:#fff;"/></g><rect x="1142.37" y="1216.14" width="580.733" height="285.179" style="fill:#fff;"/></svg>